<?xml version="1.0" standalone="no"?>
<!DOCTYPE svg PUBLIC "-//W3C//DTD SVG 20010904//EN"
 "http://www.w3.org/TR/2001/REC-SVG-20010904/DTD/svg10.dtd">
<svg version="1.0" xmlns="http://www.w3.org/2000/svg"
 width="512.000000pt" height="512.000000pt" viewBox="0 0 512.000000 512.000000"
 preserveAspectRatio="xMidYMid meet">

<g transform="translate(0.000000,512.000000) scale(0.100000,-0.100000)"
fill="#000000" stroke="none">
<path d="M800 4594 c-138 -37 -238 -139 -274 -279 -22 -83 -23 -479 -1 -551
31 -103 129 -176 239 -177 74 0 127 21 179 71 68 65 71 78 77 267 l5 170 1535
0 1535 0 0 -1535 0 -1535 -1535 0 -1535 0 -5 170 c-6 189 -9 202 -77 267 -52
50 -105 71 -179 71 -112 -1 -209 -74 -240 -181 -13 -43 -15 -98 -12 -295 3
-218 6 -247 25 -294 43 -107 132 -194 235 -230 51 -17 131 -18 1793 -18 1644
0 1742 1 1785 18 109 43 194 128 237 237 17 43 18 141 18 1790 0 1649 -1 1747
-18 1790 -43 109 -142 207 -245 242 -29 10 -401 13 -1762 15 -1495 2 -1732 0
-1780 -13z"/>
<path d="M1690 3564 c-46 -19 -864 -834 -892 -888 -26 -51 -34 -133 -18 -193
12 -44 46 -81 439 -476 280 -280 440 -434 467 -447 53 -26 154 -27 209 -1 89
40 148 130 149 226 1 107 -10 122 -212 327 l-185 187 869 3 c988 3 915 -3 999
90 48 53 65 97 65 168 0 71 -17 115 -65 168 -84 93 -11 87 -999 90 l-869 3
185 187 c201 203 212 220 212 322 0 97 -60 191 -149 231 -50 23 -156 24 -205
3z"/>
</g>
</svg>
