<?xml version="1.0" standalone="no"?>
<!DOCTYPE svg PUBLIC "-//W3C//DTD SVG 20010904//EN"
 "http://www.w3.org/TR/2001/REC-SVG-20010904/DTD/svg10.dtd">
<svg version="1.0" xmlns="http://www.w3.org/2000/svg"
 width="512.000000pt" height="512.000000pt" viewBox="0 0 512.000000 512.000000"
 preserveAspectRatio="xMidYMid meet">

<g transform="translate(0.000000,512.000000) scale(0.100000,-0.100000)"
fill="#000000" stroke="none">
<path d="M2406 4950 c-346 -55 -647 -280 -791 -594 -20 -41 -48 -119 -62 -173
-25 -88 -28 -114 -27 -258 0 -181 16 -267 77 -412 67 -158 199 -323 347 -434
73 -54 237 -133 329 -158 361 -99 743 1 1007 264 177 176 280 393 303 636 48
510 -279 977 -774 1105 -112 29 -305 40 -409 24z"/>
<path d="M2290 2714 c-476 -33 -904 -121 -1303 -268 -129 -47 -201 -86 -281
-152 -170 -141 -272 -346 -283 -570 -10 -193 32 -334 150 -512 317 -474 832
-836 1392 -977 219 -55 342 -69 590 -69 244 0 367 14 571 63 326 81 658 243
918 449 240 190 510 515 587 703 61 151 76 353 35 504 -24 90 -98 232 -159
306 -108 130 -228 201 -496 293 -293 101 -634 175 -971 211 -137 15 -628 27
-750 19z"/>
</g>
</svg>
