<?xml version="1.0" standalone="no"?>
<!DOCTYPE svg PUBLIC "-//W3C//DTD SVG 20010904//EN"
 "http://www.w3.org/TR/2001/REC-SVG-20010904/DTD/svg10.dtd">
<svg version="1.0" xmlns="http://www.w3.org/2000/svg"
 width="512.000000pt" height="512.000000pt" viewBox="0 0 512.000000 512.000000"
 preserveAspectRatio="xMidYMid meet">

<g transform="translate(0.000000,512.000000) scale(0.100000,-0.100000)"
fill="#000000" stroke="none">
<path d="M2498 4787 c-15 -7 -505 -416 -1088 -911 -800 -677 -1065 -906 -1076
-932 -51 -121 51 -244 181 -220 25 5 72 38 160 112 l125 105 0 -1098 c0 -1195
-2 -1151 56 -1265 59 -117 196 -220 329 -248 36 -7 157 -10 357 -8 l303 3 52
27 c67 36 116 85 150 151 26 50 28 60 31 224 l4 173 -35 82 c-166 389 -167
826 -4 1227 159 393 486 716 882 874 574 229 1214 112 1674 -305 71 -64 80
-65 140 -21 60 46 79 144 38 207 -21 32 -2119 1808 -2155 1823 -15 7 -43 12
-62 12 -19 0 -47 -5 -62 -12z"/>
<path d="M3380 2874 c-588 -75 -1041 -515 -1126 -1094 -57 -393 78 -802 358
-1077 124 -122 204 -180 336 -247 415 -209 911 -172 1303 95 103 70 255 225
326 329 294 437 295 1002 3 1436 -187 276 -475 468 -810 540 -73 15 -320 27
-390 18z m203 -488 c42 -17 85 -68 92 -109 6 -29 12 -35 49 -45 108 -29 151
-167 79 -253 -44 -51 -75 -59 -243 -59 -147 0 -152 -1 -175 -25 -30 -29 -32
-74 -6 -106 18 -23 27 -24 168 -29 139 -6 152 -8 215 -37 92 -43 151 -100 196
-191 35 -72 37 -81 37 -171 0 -87 -3 -102 -32 -163 -42 -90 -100 -150 -186
-193 -38 -19 -75 -35 -82 -35 -7 0 -15 -19 -19 -42 -9 -53 -66 -113 -119 -123
-86 -16 -168 31 -189 110 -10 38 -15 43 -53 53 -107 29 -150 167 -78 253 44
51 75 59 243 59 147 0 152 1 175 25 30 29 32 74 6 106 -18 23 -27 24 -168 29
-139 6 -152 8 -215 37 -92 43 -151 100 -196 191 -35 72 -37 81 -37 171 0 87 3
102 32 163 42 90 100 150 186 193 38 19 75 35 82 35 7 0 15 18 19 39 15 98
125 157 219 117z"/>
</g>
</svg>
